# Blender 5.1.0
# www.blender.org
mtllib ilyushova lab3.mtl
o Цилиндр
v -0.047586 1.498219 -0.187281
v -0.047586 1.498219 -0.032548
v -0.016137 0.865598 -0.187281
v -0.016137 0.865598 -0.032548
v -0.029757 0.797122 -0.187281
v -0.029757 0.797122 -0.032548
v -0.068546 0.739070 -0.187281
v -0.068546 0.739070 -0.032548
v -0.126598 0.700282 -0.187281
v -0.126598 0.700282 -0.032548
v -0.195074 0.686661 -0.187281
v -0.195074 0.686661 -0.032548
v -0.263550 0.700282 -0.187281
v -0.263550 0.700282 -0.032548
v -0.321602 0.739070 -0.187281
v -0.321602 0.739070 -0.032548
v -0.360391 0.797122 -0.187281
v -0.360391 0.797122 -0.032548
v -0.374011 0.865598 -0.187281
v -0.374011 0.865598 -0.032548
v -0.284245 1.478027 -0.187281
v -0.284245 1.478027 -0.032548
v -0.195074 2.027473 -0.152342
v -0.195074 2.027473 -0.027822
v -0.139968 2.016512 -0.152342
v -0.139968 2.016512 -0.027822
v -0.093251 1.985297 -0.152342
v -0.093251 1.985297 -0.027822
v -0.062036 1.938581 -0.152342
v -0.062036 1.938581 -0.027822
v -0.051075 1.883475 -0.152342
v -0.051075 1.883475 -0.027822
v -0.050653 1.547942 -0.152342
v -0.050653 1.547942 -0.027822
v -0.281753 1.528224 -0.152342
v -0.281753 1.528224 -0.027822
v -0.339073 1.883475 -0.152342
v -0.339073 1.883475 -0.027822
v -0.328112 1.938581 -0.152342
v -0.328112 1.938581 -0.027822
v -0.296897 1.985297 -0.152342
v -0.296897 1.985297 -0.027822
v -0.250180 2.016512 -0.152342
v -0.250180 2.016512 -0.027822
vn 0.9988 0.0497 -0.0000
vn 0.9808 -0.1951 -0.0000
vn 0.8315 -0.5556 -0.0000
vn 0.5556 -0.8315 -0.0000
vn 0.1951 -0.9808 -0.0000
vn -0.1951 -0.9808 -0.0000
vn -0.5556 -0.8315 -0.0000
vn -0.8315 -0.5556 -0.0000
vn -0.9808 -0.1951 -0.0000
vn -0.9894 0.1450 -0.0000
vn -0.0000 -0.0000 1.0000
vn -0.0000 -0.0000 -1.0000
vn 0.1951 0.9808 -0.0000
vn 0.5556 0.8315 -0.0000
vn 0.8315 0.5556 -0.0000
vn 0.9808 0.1951 -0.0000
vn 1.0000 0.0013 -0.0000
vn -0.9872 -0.1593 -0.0000
vn -0.9808 0.1951 -0.0000
vn -0.8315 0.5556 -0.0000
vn -0.5556 0.8315 -0.0000
vn -0.1951 0.9808 -0.0000
vn 0.0080 -0.0941 0.9955
vn 0.9981 0.0616 -0.0000
vn -0.0488 0.5722 -0.8186
vn -0.9988 0.0496 -0.0000
vt 0.812500 0.500000
vt 0.812500 0.716183
vt 0.750000 0.716183
vt 0.750000 0.500000
vt 0.687500 0.716183
vt 0.687500 0.500000
vt 0.625000 0.716183
vt 0.625000 0.500000
vt 0.562500 0.716183
vt 0.562500 0.500000
vt 0.500000 0.716183
vt 0.500000 0.500000
vt 0.437500 0.716183
vt 0.437500 0.500000
vt 0.375000 0.716183
vt 0.375000 0.500000
vt 0.312500 0.716183
vt 0.312500 0.500000
vt 0.250000 0.716183
vt 0.250000 0.500000
vt 0.187500 0.716183
vt 0.187500 0.500000
vt 0.665163 0.431619
vt 0.312086 0.341844
vt 0.010000 0.250000
vt 0.028269 0.158156
vt 0.080294 0.080294
vt 0.158156 0.028269
vt 0.250000 0.010000
vt 0.341844 0.028269
vt 0.419706 0.080294
vt 0.471731 0.158156
vt 0.490000 0.250000
vt 0.971731 0.341844
vt 0.990000 0.250000
vt 0.971731 0.158156
vt 0.919706 0.080294
vt 0.841844 0.028269
vt 0.750000 0.010000
vt 0.658156 0.028269
vt 0.580294 0.080294
vt 0.528269 0.158156
vt 0.510000 0.250000
vt 0.528269 0.341844
vt 1.000000 0.500000
vt 1.000000 0.716183
vt 0.937500 0.716183
vt 0.937500 0.500000
vt 0.875000 0.716183
vt 0.875000 0.500000
vt 0.812500 0.716183
vt 0.750000 0.716183
vt 0.383643 0.603470
vt 0.187500 0.716183
vt 0.125000 0.716183
vt 0.125000 0.500000
vt 0.341844 0.471731
vt 0.250000 0.490000
vt 0.158156 0.471731
vt 0.080294 0.419706
vt 0.028269 0.341844
vt 0.021379 0.015438
vt 0.466976 0.014509
vt 0.471731 0.341844
vt 0.419706 0.419706
vt 0.062500 0.716183
vt 0.062500 0.500000
vt 0.000000 0.716183
vt 0.000000 0.500000
vt 0.750000 0.490000
vt 0.841844 0.471731
vt 0.919706 0.419706
vt 0.580294 0.419706
vt 0.658156 0.471731
s 0
f 1/1/1 2/2/1 4/3/1 3/4/1
f 3/4/2 4/3/2 6/5/2 5/6/2
f 5/6/3 6/5/3 8/7/3 7/8/3
f 7/8/4 8/7/4 10/9/4 9/10/4
f 9/10/5 10/9/5 12/11/5 11/12/5
f 11/12/6 12/11/6 14/13/6 13/14/6
f 13/14/7 14/13/7 16/15/7 15/16/7
f 15/16/8 16/15/8 18/17/8 17/18/8
f 17/18/9 18/17/9 20/19/9 19/20/9
f 19/20/10 20/19/10 22/21/10 21/22/10
f 2/23/11 22/24/11 20/25/11 18/26/11 16/27/11 14/28/11 12/29/11 10/30/11 8/31/11 6/32/11 4/33/11
f 1/34/12 3/35/12 5/36/12 7/37/12 9/38/12 11/39/12 13/40/12 15/41/12 17/42/12 19/43/12 21/44/12
f 23/45/13 24/46/13 26/47/13 25/48/13
f 25/48/14 26/47/14 28/49/14 27/50/14
f 27/50/15 28/49/15 30/51/15 29/1/15
f 29/1/16 30/51/16 32/52/16 31/4/16
f 31/4/17 32/52/17 34/5/17 33/6/17
f 35/18/18 36/53/18 38/19/18 37/20/18
f 37/20/19 38/19/19 40/54/19 39/22/19
f 39/22/20 40/54/20 42/55/20 41/56/20
f 26/57/11 24/58/11 44/59/11 42/60/11 40/61/11 38/25/11 36/62/11 34/63/11 32/33/11 30/64/11 28/65/11
f 41/56/21 42/55/21 44/66/21 43/67/21
f 43/67/22 44/66/22 24/68/22 23/69/22
f 23/70/12 25/71/12 27/72/12 29/34/12 31/35/12 33/36/12 35/42/12 37/43/12 39/44/12 41/73/12 43/74/12
f 2/23/23 34/63/23 36/62/23 22/24/23
f 1/1/24 33/6/24 34/5/24 2/23/24
f 21/44/25 35/42/25 33/36/25 1/1/25
f 21/44/26 22/24/26 36/53/26 35/42/26
o Куб.002
v -0.338903 1.953616 0.185581
v -1.222536 2.169753 -0.138594
v -0.338903 2.286766 0.185581
v -1.082464 2.169753 -0.138594
v -0.338903 1.953616 -0.202268
v -1.222536 2.119818 -0.128662
v -0.338903 2.286766 -0.202268
v -1.082464 2.119818 -0.128662
v -1.222536 2.077485 -0.100376
v 0.009202 1.996423 0.185581
v 0.052004 2.109716 0.185581
v -1.082464 2.077485 -0.100376
v -1.222536 2.049199 -0.058043
v 0.009202 1.996423 -0.202268
v 0.052004 2.109716 -0.202268
v -1.082464 2.049199 -0.058043
v -0.184723 1.951578 -0.202268
v -1.222536 2.039266 -0.008108
v -1.082464 2.039266 -0.008108
v -0.126634 2.336370 -0.202268
v -0.184723 1.951578 0.185581
v -1.222536 2.049199 0.041827
v -0.126634 2.336370 0.185581
v -1.082464 2.049199 0.041827
v -0.261813 1.952597 -0.202268
v -1.222536 2.077485 0.084160
v -0.252641 2.330931 0.185581
v -1.082464 2.077485 0.084160
v -0.252641 2.330931 -0.202268
v -1.222536 2.119818 0.112446
v -0.261813 1.952597 0.185581
v -1.082464 2.119818 0.112446
v -0.412279 2.050556 0.126115
v -1.222536 2.169753 0.122379
v -1.082464 2.169753 0.122379
v -0.412279 2.281546 0.126115
v -0.412279 2.050556 -0.142802
v -1.222536 2.219688 0.112446
v -0.412279 2.281546 -0.142802
v -1.082464 2.219688 0.112446
v 0.001207 2.246279 -0.202268
v -1.222536 2.262021 0.084160
v -0.087761 1.951578 0.185581
v -1.082464 2.262021 0.084160
v -0.087761 1.951578 -0.202268
v -1.222536 2.290307 0.041827
v 0.001207 2.246279 0.185581
v -1.082464 2.290307 0.041827
v -0.316808 1.824114 0.185581
v -1.222536 2.300239 -0.008108
v -1.082464 2.300239 -0.008108
v -0.162629 1.822076 0.185581
v -1.222536 2.290307 -0.058043
v -0.170975 1.952253 -0.008344
v -1.082464 2.290307 -0.058043
v -0.239719 1.823095 0.185581
v -0.065666 1.822076 0.185581
v -1.222536 2.262021 -0.100376
v -1.082464 2.262021 -0.100376
v -0.247749 1.952876 -0.008344
v -1.222536 2.219688 -0.128662
v -0.338903 1.953616 -0.034251
v -1.082464 2.219688 -0.128662
v -0.338903 2.286766 -0.034251
v -0.855259 2.169753 -0.138594
v 0.009202 1.996423 -0.034251
v -0.855259 2.119818 -0.128662
v 0.052004 2.109716 -0.034251
v -0.855259 2.077485 -0.100376
v -0.126634 2.336370 -0.034251
v -0.855259 2.049199 -0.058043
v -0.252641 2.330931 -0.034251
v -0.412279 2.050556 -0.034251
v -0.855259 2.039266 -0.008108
v -0.855259 2.049199 0.041827
v -0.412279 2.281546 -0.034251
v -0.855259 2.077485 0.084160
v 0.001207 2.246279 -0.034251
v -0.087761 1.951578 -0.034251
v -0.855259 2.119818 0.112446
v -0.855259 2.169753 0.122379
v -0.316808 1.824114 -0.034251
v -0.162629 1.822076 -0.034251
v -0.855259 2.219688 0.112446
v -0.239719 1.823095 -0.034251
v -0.855259 2.262021 0.084160
v -0.855259 2.290307 0.041827
v -0.065666 1.822076 -0.034251
v -0.855259 2.300239 -0.008108
v -0.855259 2.290307 -0.058043
v -0.855259 2.262021 -0.100376
v -0.855259 2.219688 -0.128662
v -0.777774 2.134641 -0.092876
v -0.777774 2.169753 -0.099860
v -0.777774 2.104874 -0.072986
v -0.777774 2.084985 -0.043220
v -0.777774 2.078001 -0.008108
v -0.777774 2.084985 0.027004
v -0.777774 2.104874 0.056771
v -0.777774 2.134641 0.076660
v -0.777774 2.169753 0.083644
v -0.777774 2.204865 0.076660
v -0.777774 2.234631 0.056771
v -0.777774 2.254521 0.027004
v -0.777774 2.261505 -0.008108
v -0.777774 2.254521 -0.043220
v -0.777774 2.234631 -0.072986
v -0.777774 2.204865 -0.092876
v -0.492489 2.134641 -0.092876
v -0.492489 2.169753 -0.099860
v -0.492489 2.104874 -0.072986
v -0.492489 2.084985 -0.043220
v -0.492489 2.078001 -0.008108
v -0.492489 2.084985 0.027004
v -0.492489 2.104874 0.056771
v -0.492489 2.134641 0.076660
v -0.492489 2.169753 0.083644
v -0.492489 2.204865 0.076660
v -0.492489 2.234631 0.056771
v -0.492489 2.254521 0.027004
v -0.492489 2.261505 -0.008108
v -0.492489 2.254521 -0.043220
v -0.492489 2.234631 -0.072986
v -0.492489 2.204865 -0.092876
v -0.453747 2.128487 -0.107732
v -0.453747 2.169753 -0.115940
v -0.453747 2.093504 -0.084357
v -0.453747 2.070129 -0.049373
v -0.453747 2.061920 -0.008108
v -0.453747 2.070129 0.033158
v -0.453747 2.093504 0.068141
v -0.453747 2.128487 0.091516
v -0.453747 2.169753 0.099725
v -0.453747 2.211018 0.091516
v -0.453747 2.246002 0.068141
v -0.453747 2.269377 0.033158
v -0.453747 2.277585 -0.008108
v -0.453747 2.269377 -0.049373
v -0.453747 2.246002 -0.084357
v -0.453747 2.211018 -0.107732
v -1.297730 2.169753 -0.103392
v -1.297730 2.133289 -0.096139
v -1.297730 2.102376 -0.075484
v -1.297730 2.081722 -0.044572
v -1.297730 2.074468 -0.008108
v -1.297730 2.081722 0.028356
v -1.297730 2.102376 0.059268
v -1.297730 2.133289 0.079923
v -1.297730 2.169753 0.087177
v -1.297730 2.206216 0.079923
v -1.297730 2.237129 0.059268
v -1.297730 2.257784 0.028356
v -1.297730 2.265037 -0.008108
v -1.297730 2.257784 -0.044572
v -1.297730 2.237129 -0.075484
v -1.297730 2.206216 -0.096139
v -1.297730 2.169753 -0.075214
v -1.297730 2.144073 -0.070106
v -1.297730 2.122302 -0.055559
v -1.297730 2.107755 -0.033788
v -1.297730 2.102647 -0.008108
v -1.297730 2.107755 0.017573
v -1.297730 2.122302 0.039343
v -1.297730 2.144073 0.053890
v -1.297730 2.169753 0.058998
v -1.297730 2.195433 0.053890
v -1.297730 2.217204 0.039343
v -1.297730 2.231750 0.017573
v -1.297730 2.236859 -0.008108
v -1.297730 2.231750 -0.033788
v -1.297730 2.217204 -0.055559
v -1.297730 2.195433 -0.070106
v -1.385703 2.169753 -0.075214
v -1.385703 2.144073 -0.070106
v -1.385703 2.122302 -0.055559
v -1.385703 2.107755 -0.033788
v -1.385703 2.102647 -0.008108
v -1.385703 2.107755 0.017573
v -1.385703 2.122302 0.039343
v -1.385703 2.144073 0.053890
v -1.385703 2.169753 0.058998
v -1.385703 2.195433 0.053890
v -1.385703 2.217204 0.039343
v -1.385703 2.231750 0.017573
v -1.385703 2.236859 -0.008108
v -1.385703 2.231750 -0.033788
v -1.385703 2.217204 -0.055559
v -1.385703 2.195433 -0.070106
v -0.412279 2.067121 -0.034251
v -0.412279 2.211018 -0.107732
v -0.412279 2.246002 -0.084357
v -0.412279 2.269377 -0.049373
v -0.412279 2.272385 -0.034251
v -0.412279 2.070129 -0.049373
v -0.412279 2.093504 -0.084357
v -0.412279 2.169753 -0.115940
v -0.412279 2.128487 -0.107732
v -0.412279 2.169753 0.099725
v -0.412279 2.128487 0.091516
v -0.412279 2.211018 0.091516
v -0.412279 2.277585 -0.008108
v -0.412279 2.269377 0.033158
v -0.412279 2.246002 0.068141
v -0.412279 2.070129 0.033158
v -0.412279 2.093504 0.068141
v -0.412279 2.061920 -0.008108
vn -0.0710 0.9975 -0.0000
vn -0.0000 -0.0000 -1.0000
vn 0.9355 -0.3534 -0.0000
vn -0.0000 -0.0000 1.0000
vn 0.4198 -0.9076 -0.0000
vn -0.4557 0.8901 -0.0000
vn 0.5760 0.8174 -0.0000
vn -0.0107 -0.9999 0.0032
vn -0.0431 0.9991 -0.0000
vn -1.0000 -0.0000 -0.0000
vn -0.7973 -0.6035 -0.0000
vn -0.6296 -0.0000 -0.7769
vn -0.6296 -0.0000 0.7769
vn 0.9373 0.3486 -0.0000
vn -0.0132 -0.9999 -0.0000
vn -0.0000 -1.0000 -0.0000
vn 0.9858 0.1682 -0.0000
vn 0.1524 0.1158 -0.9815
vn 0.0021 0.1956 -0.9807
vn -0.1415 0.0818 -0.9865
vn -0.0106 -0.9999 0.0012
vn -0.0035 -1.0000 0.0020
vn -0.9858 -0.1682 -0.0000
vn -0.0000 -0.1951 -0.9808
vn -0.0000 -0.5556 -0.8315
vn -0.0000 -0.8315 -0.5556
vn -0.0000 -0.9808 -0.1951
vn -0.0000 -0.9808 0.1951
vn -0.0000 -0.8315 0.5556
vn -0.0000 -0.5556 0.8315
vn -0.0000 -0.1951 0.9808
vn -0.0000 0.1951 0.9808
vn -0.0000 0.5556 0.8315
vn -0.0000 0.8315 0.5556
vn -0.0000 0.9808 0.1951
vn -0.0000 0.9808 -0.1951
vn -0.0000 0.8315 -0.5556
vn -0.0000 0.5556 -0.8315
vn -0.0000 0.1951 -0.9808
vn -0.4173 -0.8913 -0.1773
vn 0.4402 -0.8806 -0.1752
vn 0.4402 0.8806 0.1752
vn 0.4402 -0.8806 0.1752
vn 0.4402 0.8806 -0.1752
vn 0.4402 -0.7466 0.4988
vn 0.4402 0.7466 -0.4988
vn 0.4402 -0.4988 0.7466
vn 0.4402 0.4988 -0.7466
vn 0.4402 -0.1752 0.8806
vn 0.4402 -0.1752 -0.8806
vn 0.4402 0.1752 -0.8806
vn 0.4402 0.1752 0.8806
vn 0.4402 -0.4988 -0.7466
vn 0.4402 0.4988 0.7466
vn 0.4402 -0.7466 -0.4988
vn 0.4402 0.7466 0.4988
vn -0.3770 0.7701 -0.5146
vn -0.3770 -0.5146 0.7701
vn -0.3770 0.5146 -0.7701
vn -0.3770 -0.1807 0.9084
vn -0.3770 -0.1807 -0.9084
vn -0.3770 0.1807 -0.9084
vn -0.3770 0.1807 0.9084
vn -0.3770 -0.5146 -0.7701
vn -0.3770 0.5146 0.7701
vn -0.3770 -0.7701 -0.5146
vn -0.3770 0.7701 0.5146
vn -0.3770 -0.9084 -0.1807
vn -0.3770 0.9084 0.1807
vn -0.3770 -0.9084 0.1807
vn -0.3770 0.9084 -0.1807
vn -0.3770 -0.7701 0.5146
vn -0.4173 0.1773 0.8913
vn -0.4173 0.7556 -0.5049
vn -0.4173 -0.5049 -0.7556
vn -0.4173 -0.5049 0.7556
vn -0.4173 0.8913 0.1773
vn -0.4173 -0.8913 0.1773
vn -0.4173 0.5049 0.7556
vn -0.4173 0.5049 -0.7556
vn -0.4173 -0.7556 -0.5049
vn -0.4173 -0.1773 0.8913
vn -0.4173 0.8913 -0.1773
vn -0.4173 -0.1773 -0.8913
vn -0.4173 -0.7556 0.5049
vn -0.4173 0.7556 0.5049
vn -0.4173 0.1773 -0.8913
vt 0.875000 0.625000
vt 0.875000 0.500000
vt 0.375000 0.437500
vt 0.625000 0.437500
vt 0.625000 0.500000
vt 0.375000 0.500000
vt 0.375000 0.625000
vt 0.625000 0.625000
vt 0.625000 0.750000
vt 0.375000 0.750000
vt 0.375000 0.937500
vt 0.625000 0.937500
vt 0.625000 1.000000
vt 0.375000 1.000000
vt 0.312500 0.625000
vt 0.312500 0.750000
vt 0.812500 0.625000
vt 0.875000 0.750000
vt 0.812500 0.750000
vt 0.687500 0.625000
vt 0.750000 0.625000
vt 0.750000 0.750000
vt 0.687500 0.750000
vt 0.375000 0.312500
vt 0.375000 0.375000
vt 0.250373 0.625000
vt 0.193054 0.625000
vt 0.375000 0.812500
vt 0.625000 0.812500
vt 0.625000 0.875000
vt 0.375000 0.875000
vt 0.625000 0.312500
vt 0.625000 0.375000
vt 0.375000 0.250000
vt 0.625000 0.250000
vt 0.625000 0.125000
vt 0.375000 0.125000
vt 0.392928 0.125000
vt 0.396183 0.142414
vt 0.421482 0.182699
vt 0.459345 0.209616
vt 0.504006 0.219068
vt 0.548668 0.209616
vt 0.586530 0.182699
vt 0.611829 0.142414
vt 0.615085 0.125000
vt 0.125000 0.625000
vt 0.125000 0.750000
vt 0.187500 0.625000
vt 0.250000 0.625000
vt 0.250000 0.750000
vt 0.187500 0.750000
vt 0.125000 0.500000
vt 0.312500 0.500000
vt 0.687500 0.500000
vt 0.375000 0.000000
vt 0.625000 0.000000
vt 0.620713 0.104622
vt 0.611829 0.072457
vt 0.586530 0.045188
vt 0.548668 0.026968
vt 0.504006 0.020570
vt 0.459345 0.026968
vt 0.421482 0.045188
vt 0.396183 0.072457
vt 0.387300 0.104622
vt 0.750000 0.500000
vt 0.812500 0.500000
vt 1.000000 0.500000
vt 1.000000 1.000000
vt 0.937500 1.000000
vt 0.937500 0.500000
vt 0.875000 1.000000
vt 0.812500 1.000000
vt 0.812500 0.500000
vt 0.750000 1.000000
vt 0.687500 1.000000
vt 0.687500 0.500000
vt 0.562500 1.000000
vt 0.562500 0.500000
vt 0.500000 1.000000
vt 0.500000 0.500000
vt 0.437500 1.000000
vt 0.437500 0.500000
vt 0.312500 1.000000
vt 0.250000 1.000000
vt 0.250000 0.500000
vt 0.187500 1.000000
vt 0.187500 0.500000
vt 0.125000 1.000000
vt 0.062500 1.000000
vt 0.062500 0.500000
vt 0.000000 1.000000
vt 0.000000 0.500000
vt 0.210404 1.000000
vt 0.789596 1.000000
vt 0.437500 0.500000
vt 0.705983 0.500000
vt 0.205983 0.500000
vt 0.665285 0.500000
vt 0.165285 0.500000
vt 0.658156 0.471731
vt 0.750000 0.490000
vt 0.919706 0.419706
vt 0.971731 0.341844
vt 0.990000 0.250000
vt 0.971731 0.158156
vt 0.919706 0.080294
vt 0.841844 0.028269
vt 0.750000 0.010000
s 0
f 108/75/27 51/76/27 83/76/27 120/75/27
f 89/77/28 85/78/28 59/79/28 58/80/28
f 110/81/29 112/82/29 55/83/29 54/84/29
f 75/85/30 71/86/30 47/87/30 45/88/30
f 123/89/31 110/81/31 54/84/31 87/90/31
f 116/91/32 108/75/32 47/92/32 71/93/32
f 122/94/33 114/95/33 67/96/33 91/97/33
f 69/98/34 61/99/34 98/100/34 104/101/34
f 87/102/30 91/103/30 67/104/30 65/105/30
f 69/98/28 73/106/28 64/107/28 61/99/28
f 49/108/28 51/109/28 73/106/28 69/98/28
f 114/95/35 116/91/35 71/93/35 67/96/35
f 65/105/30 67/104/30 71/86/30 75/85/30
f 120/110/36 83/109/36 81/108/36 117/111/36 233/112/36 238/113/36 239/114/36 241/115/36 240/116/36 234/117/36 235/118/36 236/119/36 237/120/36
f 106/121/37 45/122/37 77/122/37 117/121/37
f 51/109/38 49/108/38 81/108/38 83/109/38
f 45/88/39 47/87/39 80/87/39 77/88/39
f 54/84/30 55/83/30 91/103/30 87/102/30
f 112/82/40 122/94/40 91/97/40 55/83/40
f 87/102/30 65/105/30 96/105/30 101/102/30
f 61/99/28 64/107/28 85/78/28 89/77/28
f 129/123/41 127/124/41 96/125/41 100/126/41
f 126/121/41 129/123/41 100/126/41 93/122/41
f 127/124/42 132/89/42 101/90/42 96/125/42
f 123/89/43 87/90/43 101/90/43 132/89/43
f 106/121/44 104/101/44 129/123/44 126/121/44
f 65/105/30 75/85/30 100/85/30 96/105/30
f 75/85/30 45/88/30 93/88/30 100/85/30
f 104/101/45 98/100/45 127/124/45 129/123/45
f 98/100/46 123/89/46 132/89/46 127/124/46
f 49/127/47 69/98/47 104/101/47 106/121/47
f 61/99/48 89/128/48 123/89/48 98/100/48
f 59/79/40 85/129/40 122/94/40 112/82/40
f 49/127/37 106/121/37 117/121/37 81/127/37
f 117/111/36 77/130/36 80/131/36 120/110/36 237/120/36 245/132/36 246/133/36 247/134/36 244/135/36 242/136/36 243/137/36 249/138/36 248/139/36 250/140/36 233/112/36
f 64/141/35 73/142/35 116/91/35 114/95/35
f 45/122/49 106/121/49 126/121/49 93/122/49
f 85/129/33 64/141/33 114/95/33 122/94/33
f 73/142/32 51/76/32 108/75/32 116/91/32
f 89/128/31 58/80/31 110/81/31 123/89/31
f 58/80/29 59/79/29 112/82/29 110/81/29
f 47/92/27 108/75/27 120/75/27 80/92/27
f 46/143/50 48/144/50 52/145/50 50/146/50
f 50/146/51 52/145/51 56/147/51 53/76/51
f 53/76/52 56/147/52 60/148/52 57/149/52
f 57/149/53 60/148/53 63/150/53 62/141/53
f 62/141/54 63/150/54 68/151/54 66/152/54
f 66/152/55 68/151/55 72/87/55 70/79/55
f 70/79/56 72/87/56 76/153/56 74/154/56
f 74/154/57 76/153/57 79/155/57 78/156/57
f 78/156/58 79/155/58 84/157/58 82/158/58
f 82/158/59 84/157/59 88/88/59 86/80/59
f 86/80/60 88/88/60 92/159/60 90/128/60
f 90/128/61 92/159/61 95/160/61 94/161/61
f 94/161/62 95/160/62 99/162/62 97/163/62
f 97/163/63 99/162/63 103/164/63 102/127/63
f 56/147/51 52/145/51 111/145/51 113/147/51
f 102/127/64 103/164/64 107/165/64 105/166/64
f 105/166/65 107/165/65 48/167/65 46/168/65
f 57/149/66 62/141/66 189/141/66 188/149/66
f 118/150/67 115/148/67 140/148/67 141/150/67
f 76/153/56 72/87/56 121/87/56 124/153/56
f 95/160/61 92/159/61 131/159/61 133/160/61
f 68/151/54 63/150/54 118/150/54 119/151/54
f 88/88/59 84/157/59 128/157/59 130/88/59
f 107/165/64 103/164/64 135/164/64 136/165/64
f 60/148/52 56/147/52 113/147/52 115/148/52
f 79/155/57 76/153/57 124/153/57 125/155/57
f 52/145/50 48/144/50 109/144/50 111/145/50
f 99/162/62 95/160/62 133/160/62 134/162/62
f 72/87/55 68/151/55 119/151/55 121/87/55
f 92/159/60 88/88/60 130/88/60 131/159/60
f 48/167/65 107/165/65 136/165/65 109/167/65
f 63/150/53 60/148/53 115/148/53 118/150/53
f 84/157/58 79/155/58 125/155/58 128/157/58
f 103/164/63 99/162/63 134/162/63 135/164/63
f 146/157/58 145/155/58 161/155/58 162/157/58
f 133/160/68 131/159/68 148/159/68 149/160/68
f 119/151/69 118/150/69 141/150/69 142/151/69
f 134/162/70 133/160/70 149/160/70 150/162/70
f 121/87/71 119/151/71 142/151/71 143/87/71
f 135/164/72 134/162/72 150/162/72 151/164/72
f 124/153/73 121/87/73 143/87/73 144/153/73
f 136/165/74 135/164/74 151/164/74 152/165/74
f 125/155/75 124/153/75 144/153/75 145/155/75
f 111/145/76 109/144/76 138/144/76 137/145/76
f 109/167/77 136/165/77 152/165/77 138/167/77
f 128/157/78 125/155/78 145/155/78 146/157/78
f 113/147/79 111/145/79 137/145/79 139/147/79
f 130/88/80 128/157/80 146/157/80 147/88/80
f 115/148/81 113/147/81 139/147/81 140/148/81
f 131/159/82 130/88/82 147/88/82 148/159/82
f 167/164/83 166/162/83 182/162/83 183/164/83
f 139/147/51 137/145/51 153/145/51 155/147/51
f 147/88/59 146/157/59 162/157/59 163/88/59
f 140/148/52 139/147/52 155/147/52 156/148/52
f 148/159/60 147/88/60 163/88/60 164/159/60
f 141/150/53 140/148/53 156/148/53 157/150/53
f 149/160/61 148/159/61 164/159/61 165/160/61
f 142/151/54 141/150/54 157/150/54 158/151/54
f 150/162/62 149/160/62 165/160/62 166/162/62
f 143/87/55 142/151/55 158/151/55 159/87/55
f 151/164/63 150/162/63 166/162/63 167/164/63
f 144/153/56 143/87/56 159/87/56 160/153/56
f 152/165/64 151/164/64 167/164/64 168/165/64
f 145/155/57 144/153/57 160/153/57 161/155/57
f 137/145/50 138/144/50 154/144/50 153/145/50
f 138/167/65 152/165/65 168/165/65 154/167/65
f 181/160/61 180/159/61 246/159/61 245/160/61
f 160/153/84 159/87/84 175/87/84 176/153/84
f 168/165/85 167/164/85 183/164/85 184/165/85
f 161/155/86 160/153/86 176/153/86 177/155/86
f 153/145/87 154/144/87 170/144/87 169/145/87
f 154/167/88 168/165/88 184/165/88 170/167/88
f 162/157/89 161/155/89 177/155/89 178/157/89
f 155/147/90 153/145/90 169/145/90 171/147/90
f 163/88/91 162/157/91 178/157/91 179/88/91
f 156/148/92 155/147/92 171/147/92 172/148/92
f 164/159/93 163/88/93 179/88/93 180/159/93
f 157/150/94 156/148/94 172/148/94 173/150/94
f 165/160/95 164/159/95 180/159/95 181/160/95
f 158/151/96 157/150/96 173/150/96 174/151/96
f 166/162/97 165/160/97 181/160/97 182/162/97
f 159/87/98 158/151/98 174/151/98 175/87/98
f 174/151/54 173/150/54 250/150/54 248/151/54
f 237/169/62 236/162/62 182/162/62 181/160/62 245/160/62
f 175/87/55 174/151/55 248/151/55 249/87/55
f 183/164/63 182/162/63 236/162/63 235/164/63
f 176/153/56 175/87/56 249/87/56 243/153/56
f 184/165/64 183/164/64 235/164/64 234/165/64
f 177/155/57 176/153/57 243/153/57 242/155/57
f 169/145/50 170/144/50 240/144/50 241/145/50
f 170/167/65 184/165/65 234/165/65 240/167/65
f 178/157/58 177/155/58 242/155/58 244/157/58
f 171/147/51 169/145/51 241/145/51 239/147/51
f 179/88/59 178/157/59 244/157/59 247/88/59
f 172/148/52 171/147/52 239/147/52 238/148/52
f 180/159/60 179/88/60 247/88/60 246/159/60
f 173/150/53 172/148/53 238/148/53 233/170/53 250/150/53
f 186/146/36 187/146/36 203/76/36 202/146/36
f 78/156/99 82/158/99 194/158/99 193/156/99
f 97/163/100 102/127/100 199/127/100 198/163/100
f 50/146/101 53/76/101 187/76/101 186/146/101
f 70/79/102 74/154/102 192/154/102 191/79/102
f 90/128/103 94/161/103 197/161/103 196/128/103
f 62/141/104 66/152/104 190/152/104 189/141/104
f 82/158/105 86/80/105 195/80/105 194/158/105
f 102/127/106 105/166/106 200/166/106 199/127/106
f 53/76/107 57/149/107 188/149/107 187/76/107
f 74/154/108 78/156/108 193/156/108 192/154/108
f 94/161/109 97/163/109 198/163/109 197/161/109
f 46/143/110 50/146/110 186/146/110 185/143/110
f 66/152/111 70/79/111 191/79/111 190/152/111
f 86/80/112 90/128/112 196/128/112 195/80/112
f 105/166/113 46/168/113 185/168/113 200/166/113
f 207/79/56 208/154/56 224/154/56 223/79/56
f 194/158/36 195/171/36 211/80/36 210/158/36
f 187/76/36 188/149/36 204/149/36 203/76/36
f 195/80/36 196/128/36 212/128/36 211/80/36
f 188/149/36 189/141/36 205/141/36 204/149/36
f 196/128/36 197/161/36 213/161/36 212/128/36
f 189/141/36 190/152/36 206/172/36 205/141/36
f 197/161/36 198/163/36 214/173/36 213/161/36
f 190/152/36 191/79/36 207/174/36 206/152/36
f 198/163/36 199/127/36 215/175/36 214/163/36
f 191/79/36 192/154/36 208/79/36 207/79/36
f 199/127/36 200/166/36 216/127/36 215/127/36
f 192/154/36 193/156/36 209/154/36 208/154/36
f 185/143/36 186/143/36 202/146/36 201/143/36
f 200/166/36 185/168/36 201/166/36 216/166/36
f 193/156/36 194/156/36 210/158/36 209/156/36
f 232/176/36 217/177/36 218/176/36 219/178/36 220/179/36 221/180/36 222/181/36 223/182/36 224/183/36 225/184/36 226/183/36 227/182/36 228/181/36 229/180/36 230/179/36 231/178/36
f 215/127/64 216/166/64 232/166/64 231/127/64
f 208/154/57 209/156/57 225/156/57 224/154/57
f 201/143/50 202/146/50 218/146/50 217/143/50
f 216/166/65 201/168/65 217/168/65 232/166/65
f 209/156/58 210/158/58 226/158/58 225/156/58
f 202/146/51 203/76/51 219/76/51 218/146/51
f 210/158/59 211/80/59 227/80/59 226/158/59
f 203/76/52 204/149/52 220/149/52 219/76/52
f 211/80/60 212/128/60 228/128/60 227/80/60
f 204/149/53 205/141/53 221/141/53 220/149/53
f 212/128/61 213/161/61 229/161/61 228/128/61
f 205/141/54 206/152/54 222/152/54 221/141/54
f 213/161/62 214/163/62 230/163/62 229/161/62
f 206/152/55 207/79/55 223/79/55 222/152/55
f 214/163/63 215/127/63 231/127/63 230/163/63
o Куб.001
v 0.304974 0.410737 -0.074098
v 0.304974 0.410737 0.208829
v -0.188731 0.410737 0.208829
v -0.188731 0.410737 -0.074098
v 0.304974 0.484904 -0.074098
v 0.304974 0.484904 0.208829
v -0.188731 0.484904 0.208829
v -0.188731 0.484904 -0.074098
v 0.304974 0.927567 -0.074098
v 0.304974 0.927567 0.208829
v -0.356911 0.927567 0.208829
v -0.356911 0.927567 -0.074098
v 0.353373 0.528584 -0.074098
v 0.353373 0.528584 0.208829
v 0.391312 0.927567 -0.074098
v 0.391312 0.927567 0.208829
v -0.340201 0.750959 -0.074098
v -0.340201 0.750959 0.208829
v 0.304974 0.706235 0.208829
v 0.304974 0.706235 -0.074098
v 0.391312 0.706235 0.208829
v 0.391312 0.706235 -0.074098
v -0.197135 0.595569 0.208829
v 0.304974 0.569030 0.208829
v 0.391312 0.569030 0.208829
v -0.197135 0.595569 -0.074098
v 0.304974 0.569030 -0.074098
v 0.391312 0.569030 -0.074098
vn -0.0000 -1.0000 -0.0000
vn -0.9956 -0.0942 -0.0000
vn -0.0000 -0.0000 -1.0000
vn 1.0000 -0.0000 -0.0000
vn -1.0000 -0.0000 -0.0000
vn -0.0000 -0.0000 1.0000
vn -0.0000 1.0000 -0.0000
vn 0.6700 -0.7424 -0.0000
vn -0.7357 -0.6773 -0.0000
vn -0.9971 -0.0757 -0.0000
vn 0.7294 -0.6841 -0.0000
vt 0.625000 1.000000
vt 0.625000 0.250000
vt 0.709899 0.483471
vt 0.625000 0.851427
vt 0.625000 0.851427
vt 0.709899 0.483471
s 0
f 254/185/114 251/188/114 252/187/114 253/186/114
f 268/186/115 261/186/115 262/185/115 267/185/115
f 254/185/116 258/185/116 255/188/116 251/188/116
f 251/188/117 255/188/117 256/187/117 252/187/117
f 253/186/118 257/186/118 258/185/118 254/185/118
f 252/187/119 256/187/119 257/186/119 253/186/119
f 262/185/120 261/186/120 260/187/120 259/188/120
f 269/187/119 260/187/119 261/186/119 268/186/119
f 267/185/116 262/185/116 259/188/116 270/188/116
f 260/187/120 266/187/120 265/188/120 259/188/120
f 272/188/117 265/188/117 266/187/117 271/187/117
f 277/188/116 278/188/116 263/189/116 255/188/116
f 255/188/121 263/189/121 264/190/121 256/187/121
f 269/187/119 271/187/119 266/187/119 260/187/119
f 274/187/119 275/187/119 271/187/119 269/187/119
f 259/188/116 265/188/116 272/188/116 270/188/116
f 278/188/117 272/188/117 271/187/117 275/187/117
f 276/185/116 267/185/116 270/188/116 277/188/116
f 274/187/119 269/187/119 268/186/119 273/186/119
f 273/186/122 268/186/122 267/185/122 276/185/122
f 257/186/123 273/186/123 276/185/123 258/185/123
f 256/187/119 274/187/119 273/186/119 257/186/119
f 258/185/116 276/185/116 277/188/116 255/188/116
f 263/189/124 278/188/124 275/187/124 264/190/124
f 256/187/119 264/190/119 275/187/119 274/187/119
f 270/188/116 272/188/116 278/188/116 277/188/116
o Куб
v -0.247071 0.081537 -0.301095
v -0.247071 0.107060 -0.301096
v 0.067461 0.411272 -0.253087
v -0.247071 0.081537 0.326385
v -0.247071 0.107060 0.326384
v 0.528460 0.106037 0.189398
v 0.118644 0.411272 -0.248046
v 0.528460 0.379285 0.189398
v 0.403163 0.081537 -0.301095
v 0.528460 0.106037 -0.155113
v 0.403163 0.107060 -0.301096
v 0.528460 0.379285 -0.155113
v 0.167860 0.411272 -0.233116
v 0.403163 0.081537 0.326385
v 0.403163 0.107060 0.326385
v 0.528460 0.106037 0.052177
v 0.528460 0.379285 0.052177
v 0.213217 0.411272 -0.208872
v 0.252973 0.411272 -0.176245
v 0.285600 0.411272 -0.136489
v 0.309844 0.411272 -0.091132
v 0.324774 0.411272 -0.041916
v 0.528460 0.139661 -0.155113
v 0.329815 0.411272 0.009267
v 0.324774 0.411272 0.060450
v 0.528460 0.345662 -0.155113
v 0.309844 0.411272 0.109665
v 0.528460 0.139661 0.189398
v 0.528460 0.345662 0.189398
v 0.285600 0.411272 0.155023
v 0.528460 0.345662 0.052177
v 0.252973 0.411272 0.194779
v 0.213217 0.411272 0.227406
v 0.528460 0.139661 0.052177
v 0.167860 0.411272 0.251650
v 0.118644 0.411272 0.266580
v 0.667058 0.295937 0.101902
v 0.067461 0.411272 0.271621
v 0.667058 0.189385 0.101902
v 0.016278 0.411272 0.266580
v 0.667058 0.189385 0.139673
v -0.032937 0.411272 0.251650
v -0.078295 0.411272 0.227406
v 0.667058 0.295937 0.139673
v 0.667058 0.345662 0.052177
v -0.118051 0.411272 0.194779
v -0.150678 0.411272 0.155023
v 0.667058 0.139661 0.052177
v -0.174922 0.411272 0.109665
v 0.667058 0.139661 0.189398
v -0.189852 0.411272 0.060450
v 0.667058 0.345662 0.189398
v 0.707823 0.295937 0.101902
v -0.194893 0.411272 0.009267
v 0.707823 0.189385 0.101902
v -0.189852 0.411272 -0.041916
v 0.707823 0.189385 0.139673
v -0.174922 0.411272 -0.091132
v 0.707823 0.295937 0.139673
v -0.150678 0.411272 -0.136489
v -0.118051 0.411272 -0.176245
v -0.078295 0.411272 -0.208872
v -0.032937 0.411272 -0.233116
v 0.016278 0.411272 -0.248046
v 0.067461 0.345714 -0.202653
v 0.108805 0.345714 -0.198581
v 0.148559 0.345714 -0.186521
v 0.185198 0.345714 -0.166938
v 0.148559 0.345714 0.205055
v 0.108805 0.345714 0.217115
v 0.067461 0.345714 0.221187
v 0.026118 0.345714 0.217115
v -0.013637 0.345714 0.205055
v -0.050275 0.345714 0.185472
v -0.082389 0.345714 0.159117
v -0.108744 0.345714 0.127003
v -0.128327 0.345714 0.090365
v -0.140387 0.345714 0.050610
v -0.144459 0.345714 0.009267
v -0.140387 0.345714 -0.032077
v -0.128327 0.345714 -0.071831
v -0.108744 0.345714 -0.108469
v -0.082389 0.345714 -0.140583
v -0.050275 0.345714 -0.166938
v -0.013637 0.345714 -0.186521
v 0.026118 0.345714 -0.198581
v 0.110754 0.303611 -0.208379
v 0.117185 0.145995 -0.240713
v 0.112012 0.275515 -0.214705
v 0.113421 0.242412 -0.221791
v 0.114844 0.207542 -0.228945
v 0.116141 0.174319 -0.235464
v 0.152382 0.303611 -0.195751
v 0.164998 0.145995 -0.226209
v 0.154851 0.275515 -0.201710
v 0.157616 0.242412 -0.208385
v 0.160407 0.207542 -0.215123
v 0.162951 0.174319 -0.221265
v 0.190748 0.303611 -0.175245
v 0.209063 0.145995 -0.202656
v 0.194331 0.275515 -0.180607
v 0.198345 0.242412 -0.186615
v 0.202397 0.207542 -0.192679
v 0.206090 0.174319 -0.198206
v 0.247686 0.145995 -0.170958
v 0.234045 0.242412 -0.157317
v 0.239202 0.207542 -0.162474
v 0.243903 0.174319 -0.167175
v 0.247686 0.145995 0.189492
v 0.190748 0.303611 0.193778
v 0.209063 0.145995 0.221189
v 0.194331 0.275515 0.199141
v 0.198345 0.242412 0.205149
v 0.202397 0.207542 0.211213
v 0.206090 0.174319 0.216740
v 0.152382 0.303611 0.214285
v 0.164998 0.145995 0.244743
v 0.154851 0.275515 0.220244
v 0.157616 0.242412 0.226919
v 0.160407 0.207542 0.233657
v 0.162951 0.174319 0.239799
v 0.110754 0.303611 0.226913
v 0.117185 0.145995 0.259247
v 0.112012 0.275515 0.233239
v 0.113421 0.242412 0.240325
v 0.114844 0.207542 0.247479
v 0.116141 0.174319 0.253998
v 0.067461 0.303611 0.231177
v 0.067461 0.145995 0.264144
v 0.067461 0.275515 0.237627
v 0.067461 0.242412 0.244852
v 0.067461 0.207542 0.252145
v 0.067461 0.174319 0.258793
v 0.024169 0.303611 0.226913
v 0.017737 0.145995 0.259247
v 0.022910 0.275515 0.233239
v 0.021501 0.242412 0.240325
v 0.020078 0.207542 0.247479
v 0.018781 0.174319 0.253998
v -0.017460 0.303611 0.214285
v -0.030076 0.145995 0.244743
v -0.019928 0.275515 0.220244
v -0.022693 0.242412 0.226919
v -0.025484 0.207542 0.233657
v -0.028028 0.174319 0.239799
v -0.055825 0.303611 0.193778
v -0.074141 0.145995 0.221189
v -0.059409 0.275515 0.199141
v -0.063423 0.242412 0.205149
v -0.067475 0.207542 0.211213
v -0.071168 0.174319 0.216740
v -0.089453 0.303611 0.166181
v -0.112764 0.145995 0.189492
v -0.094014 0.275515 0.170742
v -0.099123 0.242412 0.175851
v -0.104280 0.207542 0.181008
v -0.108980 0.174319 0.185708
v -0.117050 0.303611 0.132554
v -0.144461 0.145995 0.150869
v -0.122413 0.275515 0.136137
v -0.128421 0.242412 0.140151
v -0.134485 0.207542 0.144203
v -0.140012 0.174319 0.147896
v -0.137557 0.303611 0.094188
v -0.168015 0.145995 0.106804
v -0.143516 0.275515 0.096656
v -0.150191 0.242412 0.099421
v -0.156929 0.207542 0.102212
v -0.163071 0.174319 0.104756
v -0.150185 0.303611 0.052559
v -0.182519 0.145995 0.058991
v -0.156511 0.275515 0.053818
v -0.163597 0.242412 0.055227
v -0.170750 0.207542 0.056650
v -0.177270 0.174319 0.057947
v -0.154449 0.303611 0.009267
v -0.187416 0.145995 0.009267
v -0.160899 0.275515 0.009267
v -0.168124 0.242412 0.009267
v -0.175417 0.207542 0.009267
v -0.182065 0.174319 0.009267
v -0.150185 0.303611 -0.034026
v -0.182519 0.145995 -0.040457
v -0.156511 0.275515 -0.035284
v -0.163597 0.242412 -0.036693
v -0.170750 0.207542 -0.038116
v -0.177270 0.174319 -0.039413
v -0.137557 0.303611 -0.075654
v -0.168015 0.145995 -0.088270
v -0.143516 0.275515 -0.078123
v -0.150191 0.242412 -0.080888
v -0.156929 0.207542 -0.083679
v -0.163071 0.174319 -0.086223
v -0.117050 0.303611 -0.114020
v -0.144461 0.145995 -0.132335
v -0.122413 0.275515 -0.117603
v -0.128421 0.242412 -0.121617
v -0.134485 0.207542 -0.125669
v -0.140012 0.174319 -0.129362
v -0.089453 0.303611 -0.147647
v -0.112764 0.145995 -0.170958
v -0.094014 0.275515 -0.152208
v -0.099123 0.242412 -0.157317
v -0.104280 0.207542 -0.162474
v -0.108980 0.174319 -0.167175
v -0.055825 0.303611 -0.175245
v -0.074141 0.145995 -0.202656
v -0.059409 0.275515 -0.180607
v -0.063423 0.242412 -0.186615
v -0.067475 0.207542 -0.192679
v -0.071168 0.174319 -0.198206
v -0.017460 0.303611 -0.195751
v -0.030076 0.145995 -0.226209
v -0.019928 0.275515 -0.201710
v -0.022693 0.242412 -0.208385
v -0.025484 0.207542 -0.215123
v -0.028028 0.174319 -0.221265
v 0.024169 0.303611 -0.208379
v 0.017737 0.145995 -0.240713
v 0.022910 0.275515 -0.214705
v 0.021501 0.242412 -0.221791
v 0.020078 0.207542 -0.228945
v 0.018781 0.174319 -0.235464
v 0.067461 0.145995 -0.245610
v 0.067461 0.303611 -0.212643
v 0.067461 0.174319 -0.240259
v 0.067461 0.207542 -0.233612
v 0.067461 0.242412 -0.226318
v 0.067461 0.275515 -0.219093
v 0.067461 0.384038 -0.234678
v 0.115052 0.384038 -0.229991
v 0.160815 0.384038 -0.216109
v 0.202990 0.384038 -0.193566
v 0.239956 0.384038 -0.163228
v 0.270294 0.384038 -0.126262
v 0.292837 0.384038 -0.084087
v 0.306719 0.384038 -0.038324
v 0.311406 0.384038 0.009267
v 0.306719 0.384038 0.056858
v 0.292837 0.384038 0.102621
v 0.270294 0.384038 0.144796
v 0.239956 0.384038 0.181762
v 0.202990 0.384038 0.212100
v 0.160815 0.384038 0.234643
v 0.115052 0.384038 0.248525
v 0.067461 0.384038 0.253212
v 0.019870 0.384038 0.248525
v -0.025893 0.384038 0.234643
v -0.068068 0.384038 0.212100
v -0.105034 0.384038 0.181762
v -0.135372 0.384038 0.144796
v -0.157915 0.384038 0.102621
v -0.171797 0.384038 0.056858
v -0.176484 0.384038 0.009267
v -0.171797 0.384038 -0.038324
v -0.157915 0.384038 -0.084087
v -0.135372 0.384038 -0.126262
v -0.105034 0.384038 -0.163228
v -0.068068 0.384038 -0.193566
v -0.025893 0.384038 -0.216109
v 0.019870 0.384038 -0.229991
v -0.078064 0.107060 -0.208527
v -0.032778 0.107060 -0.232732
v 0.016360 0.107060 -0.247638
v 0.067461 0.107060 -0.252671
v 0.212986 0.107060 -0.208527
v 0.167700 0.107060 -0.232732
v 0.118563 0.107060 -0.247638
v 0.252679 0.107060 -0.175951
v -0.194477 0.107060 0.009267
v -0.189444 0.107060 -0.041835
v -0.189444 0.107060 0.060369
v -0.150332 0.107060 -0.136258
v -0.150332 0.107060 0.154792
v -0.117757 0.107060 -0.175951
v -0.174538 0.107060 -0.090972
v -0.174538 0.107060 0.109506
v -0.117757 0.107060 0.194485
v -0.078064 0.107060 0.227060
v -0.115609 0.107060 0.196248
v 0.067461 0.107060 0.271205
v 0.016360 0.107060 0.266172
v -0.032778 0.107060 0.251266
v 0.167700 0.107060 0.251266
v 0.252679 0.107060 0.194485
v 0.212986 0.107060 0.227060
v 0.118563 0.107060 0.266172
v 0.403163 0.107060 -0.155113
v 0.403163 0.106037 0.052177
v 0.403163 0.106037 -0.155113
v 0.403163 0.106037 0.189398
v 0.403163 0.107060 0.189398
v 0.256854 0.107060 0.189398
v 0.269781 0.107060 -0.155113
v 0.249243 0.139661 0.189398
v 0.247764 0.145995 0.189398
v 0.260690 0.145995 -0.155113
v 0.262169 0.139661 -0.155113
v 0.199606 0.345714 -0.155113
v 0.199626 0.345662 -0.155113
v 0.215278 0.303611 -0.155113
v 0.187821 0.325814 0.189398
v 0.196085 0.303611 0.189398
v 0.177878 0.345662 0.189398
v 0.177852 0.345714 0.189398
v 0.225396 0.275515 -0.155113
v 0.231841 0.256691 -0.155113
v 0.235853 0.242412 -0.155113
v 0.245243 0.207542 -0.155113
v 0.253801 0.174319 -0.155113
v 0.247592 0.146702 0.189398
v 0.206203 0.275515 0.189398
v 0.217538 0.242412 0.189398
v 0.228979 0.207542 0.189398
v 0.239407 0.174319 0.189398
v 0.187821 0.351364 0.189398
v 0.224422 0.379285 0.189398
v 0.237148 0.379285 0.178954
v 0.266992 0.379285 0.142589
v 0.289168 0.379285 0.101101
v 0.302824 0.379285 0.056083
v 0.303208 0.379285 0.052177
v 0.307435 0.379285 0.009267
v 0.302824 0.379285 -0.037550
v 0.289168 0.379285 -0.082567
v 0.266992 0.379285 -0.124055
v 0.241503 0.379285 -0.155113
v 0.231841 0.370304 -0.155113
vn -1.0000 -0.0000 -0.0000
vn 1.0000 -0.0000 -0.0000
vn -0.0000 -0.0000 1.0000
vn -0.0000 -0.0000 -1.0000
vn -0.0000 -1.0000 -0.0000
vn -0.0000 1.0000 -0.0000
vn 0.0813 -0.5582 -0.8257
vn 0.2409 -0.5582 -0.7940
vn 0.3911 -0.5582 -0.7318
vn 0.5264 -0.5582 -0.6414
vn 0.6414 -0.5582 -0.5264
vn 0.7318 -0.5582 -0.3911
vn 0.7940 -0.5582 -0.2409
vn 0.8257 -0.5582 -0.0813
vn 0.8257 -0.5582 0.0813
vn 0.7940 -0.5582 0.2409
vn 0.7318 -0.5582 0.3911
vn 0.6414 -0.5582 0.5264
vn 0.5264 -0.5582 0.6414
vn 0.3911 -0.5582 0.7318
vn 0.2409 -0.5582 0.7940
vn 0.0813 -0.5582 0.8257
vn -0.0813 -0.5582 0.8257
vn -0.2409 -0.5582 0.7940
vn -0.3911 -0.5582 0.7318
vn -0.5264 -0.5582 0.6414
vn -0.6414 -0.5582 0.5264
vn -0.7318 -0.5582 0.3911
vn -0.7940 -0.5582 0.2409
vn -0.8257 -0.5582 0.0813
vn -0.8257 -0.5582 -0.0813
vn -0.7940 -0.5582 -0.2409
vn -0.7318 -0.5582 -0.3911
vn -0.6414 -0.5582 -0.5264
vn -0.5264 -0.5582 -0.6414
vn -0.3911 -0.5582 -0.7318
vn -0.2409 -0.5582 -0.7940
vn -0.0813 -0.5582 -0.8257
vn -0.0965 0.1776 -0.9794
vn -0.2857 0.1776 -0.9417
vn -0.4639 0.1776 -0.8679
vn -0.6243 0.1776 -0.7607
vn -0.7607 0.1776 -0.6243
vn -0.8679 0.1776 -0.4639
vn -0.9417 0.1776 -0.2857
vn -0.9794 0.1776 -0.0965
vn -0.9794 0.1776 0.0965
vn -0.9417 0.1776 0.2857
vn -0.8679 0.1776 0.4639
vn -0.7607 0.1776 0.6243
vn -0.6243 0.1776 0.7607
vn -0.4639 0.1776 0.8679
vn -0.2857 0.1776 0.9417
vn -0.0965 0.1776 0.9794
vn 0.0965 0.1776 0.9794
vn 0.2857 0.1776 0.9417
vn 0.4639 0.1776 0.8679
vn 0.6243 0.1776 0.7607
vn 0.7607 0.1776 0.6243
vn 0.7607 0.1776 -0.6243
vn 0.6243 0.1776 -0.7607
vn 0.0954 0.2298 -0.9685
vn 0.4639 0.1776 -0.8679
vn 0.2825 0.2298 -0.9313
vn 0.0965 0.1776 -0.9794
vn 0.4588 0.2298 -0.8583
vn 0.6174 0.2298 -0.7523
vn 0.6174 0.2298 0.7523
vn 0.4588 0.2298 0.8583
vn 0.2825 0.2298 0.9313
vn 0.0954 0.2298 0.9685
vn -0.0954 0.2298 0.9685
vn -0.2825 0.2298 0.9313
vn -0.4588 0.2298 0.8583
vn -0.6174 0.2298 0.7523
vn -0.7523 0.2298 0.6174
vn -0.8583 0.2298 0.4588
vn -0.9313 0.2298 0.2825
vn -0.9685 0.2298 0.0954
vn -0.9685 0.2298 -0.0954
vn -0.9313 0.2298 -0.2825
vn -0.8583 0.2298 -0.4588
vn -0.7523 0.2298 -0.6174
vn -0.6174 0.2298 -0.7523
vn -0.4588 0.2298 -0.8583
vn -0.2825 0.2298 -0.9313
vn -0.0954 0.2298 -0.9685
vn 0.0956 0.2227 -0.9702
vn 0.0958 0.2123 -0.9725
vn 0.0960 0.2038 -0.9743
vn 0.0961 0.1953 -0.9760
vn 0.0963 0.1848 -0.9780
vn 0.2830 0.2227 -0.9329
vn 0.2837 0.2123 -0.9351
vn 0.2842 0.2038 -0.9369
vn 0.2847 0.1953 -0.9385
vn 0.2853 0.1848 -0.9405
vn 0.4596 0.2227 -0.8598
vn 0.4607 0.2123 -0.8618
vn 0.4615 0.2038 -0.8634
vn 0.4623 0.1953 -0.8649
vn 0.4633 0.1848 -0.8667
vn 0.6185 0.2227 -0.7536
vn 0.6199 0.2123 -0.7554
vn 0.6211 0.2038 -0.7568
vn 0.6222 0.1953 -0.7581
vn 0.6235 0.1848 -0.7597
vn 0.7554 0.2123 -0.6199
vn 0.7568 0.2038 -0.6211
vn 0.7581 0.1953 -0.6222
vn 0.7597 0.1848 -0.6235
vn 0.7598 0.1848 0.6233
vn 0.6185 0.2227 0.7536
vn 0.6199 0.2123 0.7554
vn 0.6211 0.2038 0.7568
vn 0.6222 0.1953 0.7581
vn 0.6235 0.1848 0.7597
vn 0.4596 0.2227 0.8598
vn 0.4607 0.2123 0.8618
vn 0.4615 0.2038 0.8634
vn 0.4623 0.1953 0.8649
vn 0.4633 0.1848 0.8667
vn 0.2830 0.2227 0.9329
vn 0.2837 0.2123 0.9351
vn 0.2842 0.2038 0.9369
vn 0.2847 0.1953 0.9385
vn 0.2853 0.1848 0.9405
vn 0.0956 0.2227 0.9702
vn 0.0958 0.2123 0.9725
vn 0.0960 0.2038 0.9743
vn 0.0961 0.1953 0.9760
vn 0.0963 0.1848 0.9780
vn -0.0956 0.2227 0.9702
vn -0.0958 0.2123 0.9725
vn -0.0960 0.2038 0.9743
vn -0.0961 0.1953 0.9760
vn -0.0963 0.1848 0.9780
vn -0.2830 0.2227 0.9329
vn -0.2837 0.2123 0.9351
vn -0.2842 0.2038 0.9369
vn -0.2847 0.1953 0.9385
vn -0.2853 0.1848 0.9405
vn -0.4596 0.2227 0.8598
vn -0.4607 0.2123 0.8618
vn -0.4615 0.2038 0.8634
vn -0.4623 0.1953 0.8649
vn -0.4633 0.1848 0.8667
vn -0.6185 0.2227 0.7536
vn -0.6199 0.2123 0.7554
vn -0.6211 0.2038 0.7568
vn -0.6222 0.1953 0.7581
vn -0.6235 0.1848 0.7597
vn -0.7536 0.2227 0.6185
vn -0.7554 0.2123 0.6199
vn -0.7568 0.2038 0.6211
vn -0.7581 0.1953 0.6222
vn -0.7597 0.1848 0.6235
vn -0.8598 0.2227 0.4596
vn -0.8618 0.2123 0.4607
vn -0.8634 0.2038 0.4615
vn -0.8649 0.1953 0.4623
vn -0.8667 0.1848 0.4633
vn -0.9329 0.2227 0.2830
vn -0.9351 0.2123 0.2837
vn -0.9369 0.2038 0.2842
vn -0.9385 0.1953 0.2847
vn -0.9405 0.1848 0.2853
vn -0.9702 0.2227 0.0956
vn -0.9725 0.2123 0.0958
vn -0.9743 0.2038 0.0960
vn -0.9760 0.1953 0.0961
vn -0.9780 0.1848 0.0963
vn -0.9702 0.2227 -0.0956
vn -0.9725 0.2123 -0.0958
vn -0.9743 0.2038 -0.0960
vn -0.9760 0.1953 -0.0961
vn -0.9780 0.1848 -0.0963
vn -0.9329 0.2227 -0.2830
vn -0.9351 0.2123 -0.2837
vn -0.9369 0.2038 -0.2842
vn -0.9385 0.1953 -0.2847
vn -0.9405 0.1848 -0.2853
vn -0.8598 0.2227 -0.4596
vn -0.8618 0.2123 -0.4607
vn -0.8634 0.2038 -0.4615
vn -0.8649 0.1953 -0.4623
vn -0.8667 0.1848 -0.4633
vn -0.7536 0.2227 -0.6185
vn -0.7554 0.2123 -0.6199
vn -0.7568 0.2038 -0.6211
vn -0.7581 0.1953 -0.6222
vn -0.7597 0.1848 -0.6235
vn -0.6185 0.2227 -0.7536
vn -0.6199 0.2123 -0.7554
vn -0.6211 0.2038 -0.7568
vn -0.6222 0.1953 -0.7581
vn -0.6235 0.1848 -0.7597
vn -0.4596 0.2227 -0.8598
vn -0.4607 0.2123 -0.8618
vn -0.4615 0.2038 -0.8634
vn -0.4623 0.1953 -0.8649
vn -0.4633 0.1848 -0.8667
vn -0.2830 0.2227 -0.9329
vn -0.2837 0.2123 -0.9351
vn -0.2842 0.2038 -0.9369
vn -0.2847 0.1953 -0.9385
vn -0.2853 0.1848 -0.9405
vn -0.0956 0.2227 -0.9702
vn -0.0958 0.2123 -0.9725
vn -0.0960 0.2038 -0.9743
vn -0.0961 0.1953 -0.9760
vn -0.0963 0.1848 -0.9780
vn 0.2857 0.1776 -0.9417
vn -0.0754 -0.6394 -0.7652
vn -0.2232 -0.6394 -0.7358
vn -0.3624 -0.6394 -0.6781
vn -0.4878 -0.6394 -0.5943
vn -0.5943 -0.6394 -0.4878
vn -0.6781 -0.6394 -0.3624
vn -0.7358 -0.6394 -0.2232
vn -0.7652 -0.6394 -0.0754
vn -0.7652 -0.6394 0.0754
vn -0.7358 -0.6394 0.2232
vn -0.6781 -0.6394 0.3624
vn -0.5943 -0.6394 0.4878
vn -0.4878 -0.6394 0.5943
vn -0.3624 -0.6394 0.6781
vn -0.2232 -0.6394 0.7358
vn -0.0754 -0.6394 0.7652
vn 0.0754 -0.6394 0.7652
vn 0.2232 -0.6394 0.7358
vn 0.3624 -0.6394 0.6781
vn 0.4878 -0.6394 0.5943
vn 0.5943 -0.6394 0.4878
vn 0.6781 -0.6394 0.3624
vn 0.7358 -0.6394 0.2232
vn 0.7652 -0.6394 0.0754
vn 0.7652 -0.6394 -0.0754
vn 0.7358 -0.6394 -0.2232
vn 0.6781 -0.6394 -0.3624
vn 0.5943 -0.6394 -0.4878
vn 0.4878 -0.6394 -0.5943
vn 0.3624 -0.6394 -0.6781
vn 0.2232 -0.6394 -0.7358
vn 0.0754 -0.6394 -0.7652
vt 0.375000 0.000000
vt 0.625000 0.000000
vt 0.625000 0.250000
vt 0.375000 0.250000
vt 0.625000 0.804323
vt 0.347839 0.777161
vt 0.347839 0.472839
vt 0.625000 0.445677
vt 0.625000 0.523974
vt 0.613892 0.524585
vt 0.613892 0.602541
vt 0.613892 0.720304
vt 0.625000 0.720884
vt 0.625000 1.000000
vt 0.375000 1.000000
vt 0.125000 0.500000
vt 0.125000 0.750000
vt 0.625000 0.738278
vt 0.625000 0.755425
vt 0.625000 0.787988
vt 0.625000 0.818376
vt 0.625000 0.843918
vt 0.625000 0.862297
vt 0.625000 0.871707
vt 0.625000 0.870653
vt 0.625000 0.857731
vt 0.625000 0.831820
vt 0.625000 0.423968
vt 0.625000 0.399189
vt 0.625000 0.385900
vt 0.625000 0.384552
vt 0.625000 0.393718
vt 0.625000 0.411859
vt 0.625000 0.437123
vt 0.625000 0.467167
vt 0.625000 0.499358
vt 0.625000 0.503505
vt 0.625000 0.425485
vt 0.625000 0.793194
vt 0.625000 0.744213
vt 0.625000 0.688293
vt 0.625000 0.628936
vt 0.625000 0.569554
vt 0.625000 0.513552
vt 0.625000 0.464402
vt 0.968750 0.766120
vt 0.968750 0.792071
vt 1.000000 0.792071
vt 1.000000 0.766120
vt 0.937500 0.766120
vt 0.937500 0.792071
vt 0.906250 0.766120
vt 0.906250 0.792071
vt 0.875000 0.766120
vt 0.875000 0.792071
vt 0.843750 0.766120
vt 0.843750 0.792071
vt 0.812500 0.766120
vt 0.812500 0.792071
vt 0.781250 0.766120
vt 0.781250 0.792071
vt 0.750000 0.766120
vt 0.750000 0.792071
vt 0.718750 0.766120
vt 0.718750 0.792071
vt 0.687500 0.766120
vt 0.687500 0.792071
vt 0.656250 0.766120
vt 0.656250 0.792071
vt 0.625000 0.766120
vt 0.625000 0.792071
vt 0.593750 0.766120
vt 0.593750 0.792071
vt 0.562500 0.766120
vt 0.562500 0.792071
vt 0.531250 0.766120
vt 0.531250 0.792071
vt 0.500000 0.766120
vt 0.500000 0.792071
vt 0.468750 0.766120
vt 0.468750 0.792071
vt 0.437500 0.766120
vt 0.437500 0.792071
vt 0.406250 0.766120
vt 0.406250 0.792071
vt 0.375000 0.766120
vt 0.375000 0.792071
vt 0.343750 0.766120
vt 0.343750 0.792071
vt 0.312500 0.766120
vt 0.312500 0.792071
vt 0.281250 0.766120
vt 0.281250 0.792071
vt 0.250000 0.766120
vt 0.250000 0.792071
vt 0.218750 0.766120
vt 0.218750 0.792071
vt 0.187500 0.766120
vt 0.187500 0.792071
vt 0.156250 0.766120
vt 0.156250 0.792071
vt 0.125000 0.766120
vt 0.125000 0.792071
vt 0.093750 0.766120
vt 0.093750 0.792071
vt 0.062500 0.766120
vt 0.062500 0.792071
vt 0.158156 0.471731
vt 0.203178 0.485388
vt 0.250000 0.490000
vt 0.296822 0.485388
vt 0.341844 0.471731
vt 0.383337 0.449553
vt 0.419706 0.419706
vt 0.449553 0.383337
vt 0.471731 0.341844
vt 0.485388 0.296822
vt 0.490000 0.250000
vt 0.485388 0.203178
vt 0.471731 0.158156
vt 0.449553 0.116663
vt 0.419706 0.080294
vt 0.383337 0.050447
vt 0.341844 0.028269
vt 0.296822 0.014612
vt 0.250000 0.010000
vt 0.203178 0.014612
vt 0.158156 0.028269
vt 0.116663 0.050447
vt 0.080294 0.080294
vt 0.050447 0.116663
vt 0.028269 0.158156
vt 0.014612 0.203178
vt 0.010000 0.250000
vt 0.014612 0.296822
vt 0.028269 0.341844
vt 0.050447 0.383337
vt 0.080294 0.419706
vt 0.116663 0.449553
vt 0.031250 0.766120
vt 0.031250 0.792071
vt 0.000000 0.766120
vt 0.000000 0.792071
vt 0.000000 0.502184
vt 0.000000 0.539286
vt 0.031250 0.539286
vt 0.031250 0.502184
vt 0.062500 0.539286
vt 0.062500 0.502184
vt 0.093750 0.539286
vt 0.093750 0.502184
vt 0.125000 0.539286
vt 0.125000 0.502184
vt 0.156250 0.539286
vt 0.156250 0.502184
vt 0.187500 0.539286
vt 0.187500 0.502184
vt 0.218750 0.539286
vt 0.218750 0.502184
vt 0.250000 0.539286
vt 0.250000 0.502184
vt 0.281250 0.539286
vt 0.281250 0.502184
vt 0.312500 0.539286
vt 0.312500 0.502184
vt 0.343750 0.539286
vt 0.343750 0.502184
vt 0.375000 0.539286
vt 0.375000 0.502184
vt 0.406250 0.539286
vt 0.406250 0.502184
vt 0.376689 0.502185
vt 0.437500 0.539286
vt 0.437500 0.502184
vt 0.468750 0.539286
vt 0.468750 0.502184
vt 0.500000 0.539286
vt 0.500000 0.502184
vt 0.531250 0.539286
vt 0.531250 0.502184
vt 0.562500 0.539286
vt 0.562500 0.502184
vt 0.593750 0.539286
vt 0.593750 0.502184
vt 0.625000 0.539286
vt 0.625000 0.502184
vt 0.629005 0.502184
vt 0.625076 0.539286
vt 0.625726 0.533250
vt 0.861586 0.533250
vt 0.862180 0.539286
vt 0.875000 0.539286
vt 0.875000 0.502184
vt 0.858594 0.502184
vt 0.906250 0.539286
vt 0.906250 0.502184
vt 0.968750 0.689480
vt 0.968750 0.729600
vt 1.000000 0.729600
vt 1.000000 0.689480
vt 0.937500 0.539286
vt 0.937500 0.502184
vt 0.937500 0.689480
vt 0.937500 0.729600
vt 0.968750 0.502184
vt 0.968750 0.539286
vt 1.000000 0.539286
vt 1.000000 0.502184
vt 0.906250 0.689480
vt 0.906250 0.729600
vt 0.892229 0.729600
vt 0.883454 0.689480
vt 0.892218 0.729551
vt 0.598710 0.689480
vt 0.593750 0.689480
vt 0.593750 0.710638
vt 0.562500 0.689480
vt 0.562500 0.729600
vt 0.587485 0.729600
vt 0.587502 0.729551
vt 0.531250 0.689480
vt 0.531250 0.729600
vt 0.500000 0.689480
vt 0.500000 0.729600
vt 0.468750 0.689480
vt 0.468750 0.729600
vt 0.437500 0.689480
vt 0.437500 0.729600
vt 0.406250 0.689480
vt 0.406250 0.729600
vt 0.375000 0.689480
vt 0.375000 0.729600
vt 0.343750 0.689480
vt 0.343750 0.729600
vt 0.312500 0.689480
vt 0.312500 0.729600
vt 0.281250 0.689480
vt 0.281250 0.729600
vt 0.250000 0.689480
vt 0.250000 0.729600
vt 0.218750 0.689480
vt 0.218750 0.729600
vt 0.187500 0.689480
vt 0.187500 0.729600
vt 0.156250 0.689480
vt 0.156250 0.729600
vt 0.125000 0.689480
vt 0.125000 0.729600
vt 0.093750 0.689480
vt 0.093750 0.729600
vt 0.062500 0.689480
vt 0.062500 0.729600
vt 0.031250 0.689480
vt 0.031250 0.729600
vt 0.000000 0.689480
vt 0.000000 0.729600
vt 0.999986 0.662753
vt 0.968750 0.662753
vt 0.999947 0.631342
vt 0.968750 0.631342
vt 0.999948 0.598074
vt 0.968750 0.598074
vt 0.999987 0.566312
vt 0.968750 0.566312
vt 0.937500 0.662753
vt 0.937500 0.631342
vt 0.937500 0.598074
vt 0.937500 0.566312
vt 0.906250 0.662753
vt 0.906250 0.631342
vt 0.906250 0.598074
vt 0.906250 0.566312
vt 0.878197 0.662753
vt 0.875000 0.631342
vt 0.875000 0.644891
vt 0.875000 0.598074
vt 0.875000 0.566312
vt 0.873071 0.631342
vt 0.868750 0.598074
vt 0.865032 0.566312
vt 0.625000 0.539960
vt 0.604471 0.662753
vt 0.593750 0.662753
vt 0.610550 0.631342
vt 0.593750 0.631342
vt 0.616320 0.598074
vt 0.593750 0.598074
vt 0.621285 0.566312
vt 0.593750 0.566312
vt 0.562500 0.662753
vt 0.562500 0.631342
vt 0.562500 0.598074
vt 0.562500 0.566312
vt 0.531250 0.662753
vt 0.531250 0.631342
vt 0.531250 0.598074
vt 0.531250 0.566312
vt 0.500000 0.662753
vt 0.500000 0.631342
vt 0.500000 0.598074
vt 0.500000 0.566312
vt 0.468750 0.662753
vt 0.468750 0.631342
vt 0.468750 0.598074
vt 0.468750 0.566312
vt 0.437500 0.662753
vt 0.437500 0.631342
vt 0.437500 0.598074
vt 0.437500 0.566312
vt 0.406250 0.662753
vt 0.406250 0.631342
vt 0.406250 0.598074
vt 0.406250 0.566312
vt 0.375000 0.662753
vt 0.375000 0.631342
vt 0.375000 0.598074
vt 0.375000 0.566312
vt 0.343750 0.662753
vt 0.343750 0.631342
vt 0.343750 0.598074
vt 0.343750 0.566312
vt 0.312500 0.662753
vt 0.312500 0.631342
vt 0.312500 0.598074
vt 0.312500 0.566312
vt 0.281250 0.662753
vt 0.281250 0.631342
vt 0.281250 0.598074
vt 0.281250 0.566312
vt 0.250000 0.662753
vt 0.250000 0.631342
vt 0.250000 0.598074
vt 0.250000 0.566312
vt 0.218750 0.662753
vt 0.218750 0.631342
vt 0.218750 0.598074
vt 0.218750 0.566312
vt 0.187500 0.662753
vt 0.187500 0.631342
vt 0.187500 0.598074
vt 0.187500 0.566312
vt 0.156250 0.662753
vt 0.156250 0.631342
vt 0.156250 0.598074
vt 0.156250 0.566312
vt 0.125000 0.662753
vt 0.125000 0.631342
vt 0.125000 0.598074
vt 0.125000 0.566312
vt 0.093750 0.662753
vt 0.093750 0.631342
vt 0.093750 0.598074
vt 0.093750 0.566312
vt 0.062500 0.662753
vt 0.062500 0.631342
vt 0.062500 0.598074
vt 0.062500 0.566312
vt 0.031250 0.662753
vt 0.031250 0.631342
vt 0.031250 0.598074
vt 0.031250 0.566312
vt 0.000014 0.662753
vt 0.000054 0.631342
vt 0.000052 0.598074
vt 0.000013 0.566312
vt 0.593750 0.734985
vt 0.625000 0.761591
vt 0.614022 0.761591
vt 0.656250 0.761591
vt 0.687500 0.761591
vt 0.718750 0.761591
vt 0.721398 0.761591
vt 0.750000 0.761591
vt 0.781250 0.761591
vt 0.812500 0.761591
vt 0.843750 0.761591
vt 0.875000 0.753033
vt 0.870403 0.761591
vt 0.375000 0.650424
vt 0.405763 0.650424
vt 0.405763 0.500000
vt 0.375000 0.500000
vt 0.375936 0.321803
vt 0.375936 0.413686
vt 0.375000 0.413686
vt 0.405763 0.316560
vt 0.375000 0.750000
vt 0.288686 0.650424
vt 0.288686 0.750000
vt 0.780435 0.653258
vt 0.780170 0.650424
vt 0.625000 0.650424
vt 0.625000 0.750000
vt 0.834443 0.750000
vt 0.825677 0.742421
vt 0.805118 0.716032
vt 0.789842 0.685926
vt 0.805118 0.522538
vt 0.822677 0.500000
vt 0.625000 0.500000
vt 0.777258 0.619285
vt 0.780435 0.585312
vt 0.789842 0.552644
vt 0.288686 0.500000
vt 0.405763 0.750000
vt 0.405763 0.942345
vt 0.375000 0.836314
vt 0.375936 0.836314
vt 0.375936 0.937102
vt 0.625000 0.959443
vt 0.594237 0.750000
vt 0.594237 0.991506
vt 0.594285 0.991524
vt 0.599455 0.984657
vt 0.594237 0.650424
vt 0.594237 0.500000
vt 0.594285 0.273462
vt 0.594237 0.273475
vt 0.625000 0.302323
vt 0.616783 0.295667
vt 0.411559 0.943364
vt 0.412205 0.943482
vt 0.437473 0.949121
vt 0.467869 0.956304
vt 0.499772 0.964186
vt 0.530058 0.971994
vt 0.555764 0.978964
vt 0.576078 0.984657
vt 0.594237 0.650424
vt 0.555764 0.284258
vt 0.530058 0.291227
vt 0.512836 0.295667
vt 0.499772 0.298431
vt 0.467869 0.304900
vt 0.437473 0.310795
vt 0.411559 0.315541
vt 0.451257 0.713916
vt 0.451257 0.686507
vt 0.548743 0.686507
vt 0.548743 0.713917
s 0
f 279/191/125 282/194/125 283/193/125 280/192/125
f 289/195/126 566/203/126 568/202/126 567/201/126 569/200/126 570/199/126 293/198/126 292/197/126 287/196/126
f 282/194/127 292/197/127 293/198/127 283/193/127
f 287/196/128 279/205/128 280/204/128 289/195/128
f 282/206/129 279/207/129 287/196/129 292/197/129
f 572/208/130 566/203/130 289/195/130 280/204/130 553/217/130 540/216/130 541/215/130 542/214/130 543/213/130 546/212/130 545/211/130 544/210/130 547/209/130
f 570/199/130 571/227/130 563/226/130 564/225/130 562/224/130 565/223/130 559/222/130 560/221/130 561/220/130 557/219/130 558/218/130 283/193/130 293/198/130
f 556/228/130 552/235/130 555/234/130 550/233/130 548/232/130 549/231/130 554/230/130 551/229/130 553/217/130 280/204/130 283/193/130 558/218/130
f 509/236/131 508/239/131 281/238/131 285/237/131
f 510/240/132 509/236/132 285/237/132 291/241/132
f 511/242/133 510/240/133 291/241/133 296/243/133
f 512/244/134 511/242/134 296/243/134 297/245/134
f 513/246/135 512/244/135 297/245/135 298/247/135
f 514/248/136 513/246/136 298/247/136 299/249/136
f 515/250/137 514/248/137 299/249/137 300/251/137
f 516/252/138 515/250/138 300/251/138 302/253/138
f 517/254/139 516/252/139 302/253/139 303/255/139
f 518/256/140 517/254/140 303/255/140 305/257/140
f 519/258/141 518/256/141 305/257/141 308/259/141
f 520/260/142 519/258/142 308/259/142 310/261/142
f 521/262/143 520/260/143 310/261/143 311/263/143
f 522/264/144 521/262/144 311/263/144 313/265/144
f 523/266/145 522/264/145 313/265/145 314/267/145
f 524/268/146 523/266/146 314/267/146 316/269/146
f 525/270/147 524/268/147 316/269/147 318/271/147
f 526/272/148 525/270/148 318/271/148 320/273/148
f 527/274/149 526/272/149 320/273/149 321/275/149
f 528/276/150 527/274/150 321/275/150 324/277/150
f 529/278/151 528/276/151 324/277/151 325/279/151
f 530/280/152 529/278/152 325/279/152 327/281/152
f 531/282/153 530/280/153 327/281/153 329/283/153
f 532/284/154 531/282/154 329/283/154 332/285/154
f 533/286/155 532/284/155 332/285/155 334/287/155
f 534/288/156 533/286/156 334/287/156 336/289/156
f 535/290/157 534/288/157 336/289/157 338/291/157
f 536/292/158 535/290/158 338/291/158 339/293/158
f 537/294/159 536/292/159 339/293/159 340/295/159
f 538/296/160 537/294/160 340/295/160 341/297/160
f 341/298/130 340/329/130 339/328/130 338/327/130 336/326/130 334/325/130 332/324/130 329/323/130 327/322/130 325/321/130 324/320/130 321/319/130 320/318/130 318/317/130 316/316/130 314/315/130 313/314/130 311/313/130 310/312/130 308/311/130 305/310/130 303/309/130 302/308/130 300/307/130 299/306/130 298/305/130 297/304/130 296/303/130 291/302/130 285/301/130 281/300/130 342/299/130
f 539/330/161 538/296/161 341/297/161 342/331/161
f 508/332/162 539/330/162 342/331/162 281/333/162
f 543/334/163 542/337/163 497/336/163 502/335/163
f 542/337/164 541/339/164 491/338/164 497/336/164
f 541/339/165 540/341/165 485/340/165 491/338/165
f 540/341/166 553/343/166 479/342/166 485/340/166
f 553/343/167 551/345/167 473/344/167 479/342/167
f 551/345/168 554/347/168 467/346/168 473/344/168
f 554/347/169 549/349/169 461/348/169 467/346/169
f 549/349/170 548/351/170 455/350/170 461/348/170
f 548/351/171 550/353/171 449/352/171 455/350/171
f 449/352/172 550/353/172 555/355/172 443/354/172
f 443/354/173 555/355/173 552/357/173 437/356/173
f 437/356/174 552/357/174 556/359/174 431/358/174
f 556/359/175 558/362/175 557/361/175 425/360/175 431/358/175
f 557/361/176 561/364/176 419/363/176 425/360/176
f 561/364/177 560/366/177 413/365/177 419/363/177
f 560/366/178 559/368/178 407/367/178 413/365/178
f 559/368/179 565/370/179 401/369/179 407/367/179
f 401/369/180 565/370/180 562/372/180 395/371/180
f 395/371/181 562/372/181 564/374/181 389/373/181
f 389/373/182 564/374/182 563/376/182 387/375/182
f 571/377/183 573/379/183 574/378/183 387/375/183 563/376/183
f 576/380/184 572/384/184 547/383/184 383/382/184 575/381/184
f 547/383/185 544/386/185 378/385/185 383/382/185
f 365/387/186 503/390/186 343/389/186 344/388/186
f 544/386/187 545/392/187 372/391/187 378/385/187
f 371/393/188 365/387/188 344/388/188 345/394/188
f 546/395/189 543/398/189 502/397/189 366/396/189
f 377/399/190 371/393/190 345/394/190 346/400/190
f 577/401/191 578/403/191 579/402/191 377/399/191 346/400/191
f 581/404/192 580/406/192 388/405/192
f 388/405/193 580/406/193 582/410/193 583/409/193 347/408/193 394/407/193
f 400/411/194 394/407/194 347/408/194 348/412/194
f 406/413/195 400/411/195 348/412/195 349/414/195
f 412/415/196 406/413/196 349/414/196 350/416/196
f 418/417/197 412/415/197 350/416/197 351/418/197
f 424/419/198 418/417/198 351/418/198 352/420/198
f 430/421/199 424/419/199 352/420/199 353/422/199
f 436/423/200 430/421/200 353/422/200 354/424/200
f 442/425/201 436/423/201 354/424/201 355/426/201
f 448/427/202 442/425/202 355/426/202 356/428/202
f 454/429/203 448/427/203 356/428/203 357/430/203
f 460/431/204 454/429/204 357/430/204 358/432/204
f 466/433/205 460/431/205 358/432/205 359/434/205
f 472/435/206 466/433/206 359/434/206 360/436/206
f 478/437/207 472/435/207 360/436/207 361/438/207
f 484/439/208 478/437/208 361/438/208 362/440/208
f 490/441/209 484/439/209 362/440/209 363/442/209
f 496/443/210 490/441/210 363/442/210 364/444/210
f 503/445/211 496/443/211 364/444/211 343/446/211
f 507/447/212 503/390/212 365/387/212 367/448/212
f 506/449/213 507/447/213 367/448/213 368/450/213
f 505/451/214 506/449/214 368/450/214 369/452/214
f 504/453/215 505/451/215 369/452/215 370/454/215
f 502/397/216 504/453/216 370/454/216 366/396/216
f 367/448/217 365/387/217 371/393/217 373/455/217
f 368/450/218 367/448/218 373/455/218 374/456/218
f 369/452/219 368/450/219 374/456/219 375/457/219
f 370/454/220 369/452/220 375/457/220 376/458/220
f 366/396/221 370/454/221 376/458/221 372/391/221
f 373/455/222 371/393/222 377/399/222 379/459/222
f 374/456/223 373/455/223 379/459/223 380/460/223
f 375/457/224 374/456/224 380/460/224 381/461/224
f 376/458/225 375/457/225 381/461/225 382/462/225
f 372/391/226 376/458/226 382/462/226 378/385/226
f 579/402/227 584/463/227 379/459/227 377/399/227
f 584/463/228 585/465/228 384/464/228 380/460/228 379/459/228
f 381/461/229 380/460/229 384/464/229 385/466/229
f 382/462/230 381/461/230 385/466/230 386/467/230
f 378/385/231 382/462/231 386/467/231 383/382/231
f 384/464/232 585/465/232 586/468/232
f 586/468/233 587/469/233 385/466/233 384/464/233
f 587/469/234 588/470/234 386/467/234 385/466/234
f 588/470/235 575/381/235 383/382/235 386/467/235
f 589/471/236 387/375/236 574/378/236
f 590/472/237 581/404/237 388/405/237 390/473/237
f 591/474/238 590/472/238 390/473/238 391/475/238
f 592/476/239 591/474/239 391/475/239 392/477/239
f 593/478/240 592/476/240 392/477/240 393/479/240
f 387/375/241 589/471/241 593/478/241 393/479/241 389/373/241
f 390/473/242 388/405/242 394/407/242 396/480/242
f 391/475/243 390/473/243 396/480/243 397/481/243
f 392/477/244 391/475/244 397/481/244 398/482/244
f 393/479/245 392/477/245 398/482/245 399/483/245
f 389/373/246 393/479/246 399/483/246 395/371/246
f 396/480/247 394/407/247 400/411/247 402/484/247
f 397/481/248 396/480/248 402/484/248 403/485/248
f 398/482/249 397/481/249 403/485/249 404/486/249
f 399/483/250 398/482/250 404/486/250 405/487/250
f 395/371/251 399/483/251 405/487/251 401/369/251
f 402/484/252 400/411/252 406/413/252 408/488/252
f 403/485/253 402/484/253 408/488/253 409/489/253
f 404/486/254 403/485/254 409/489/254 410/490/254
f 405/487/255 404/486/255 410/490/255 411/491/255
f 401/369/256 405/487/256 411/491/256 407/367/256
f 408/488/257 406/413/257 412/415/257 414/492/257
f 409/489/258 408/488/258 414/492/258 415/493/258
f 410/490/259 409/489/259 415/493/259 416/494/259
f 411/491/260 410/490/260 416/494/260 417/495/260
f 407/367/261 411/491/261 417/495/261 413/365/261
f 414/492/262 412/415/262 418/417/262 420/496/262
f 415/493/263 414/492/263 420/496/263 421/497/263
f 416/494/264 415/493/264 421/497/264 422/498/264
f 417/495/265 416/494/265 422/498/265 423/499/265
f 413/365/266 417/495/266 423/499/266 419/363/266
f 420/496/267 418/417/267 424/419/267 426/500/267
f 421/497/268 420/496/268 426/500/268 427/501/268
f 422/498/269 421/497/269 427/501/269 428/502/269
f 423/499/270 422/498/270 428/502/270 429/503/270
f 419/363/271 423/499/271 429/503/271 425/360/271
f 426/500/272 424/419/272 430/421/272 432/504/272
f 427/501/273 426/500/273 432/504/273 433/505/273
f 428/502/274 427/501/274 433/505/274 434/506/274
f 429/503/275 428/502/275 434/506/275 435/507/275
f 425/360/276 429/503/276 435/507/276 431/358/276
f 432/504/277 430/421/277 436/423/277 438/508/277
f 433/505/278 432/504/278 438/508/278 439/509/278
f 434/506/279 433/505/279 439/509/279 440/510/279
f 435/507/280 434/506/280 440/510/280 441/511/280
f 431/358/281 435/507/281 441/511/281 437/356/281
f 438/508/282 436/423/282 442/425/282 444/512/282
f 439/509/283 438/508/283 444/512/283 445/513/283
f 440/510/284 439/509/284 445/513/284 446/514/284
f 441/511/285 440/510/285 446/514/285 447/515/285
f 437/356/286 441/511/286 447/515/286 443/354/286
f 444/512/287 442/425/287 448/427/287 450/516/287
f 445/513/288 444/512/288 450/516/288 451/517/288
f 446/514/289 445/513/289 451/517/289 452/518/289
f 447/515/290 446/514/290 452/518/290 453/519/290
f 443/354/291 447/515/291 453/519/291 449/352/291
f 450/516/292 448/427/292 454/429/292 456/520/292
f 451/517/293 450/516/293 456/520/293 457/521/293
f 452/518/294 451/517/294 457/521/294 458/522/294
f 453/519/295 452/518/295 458/522/295 459/523/295
f 449/352/296 453/519/296 459/523/296 455/350/296
f 456/520/297 454/429/297 460/431/297 462/524/297
f 457/521/298 456/520/298 462/524/298 463/525/298
f 458/522/299 457/521/299 463/525/299 464/526/299
f 459/523/300 458/522/300 464/526/300 465/527/300
f 455/350/301 459/523/301 465/527/301 461/348/301
f 462/524/302 460/431/302 466/433/302 468/528/302
f 463/525/303 462/524/303 468/528/303 469/529/303
f 464/526/304 463/525/304 469/529/304 470/530/304
f 465/527/305 464/526/305 470/530/305 471/531/305
f 461/348/306 465/527/306 471/531/306 467/346/306
f 468/528/307 466/433/307 472/435/307 474/532/307
f 469/529/308 468/528/308 474/532/308 475/533/308
f 470/530/309 469/529/309 475/533/309 476/534/309
f 471/531/310 470/530/310 476/534/310 477/535/310
f 467/346/311 471/531/311 477/535/311 473/344/311
f 474/532/312 472/435/312 478/437/312 480/536/312
f 475/533/313 474/532/313 480/536/313 481/537/313
f 476/534/314 475/533/314 481/537/314 482/538/314
f 477/535/315 476/534/315 482/538/315 483/539/315
f 473/344/316 477/535/316 483/539/316 479/342/316
f 480/536/317 478/437/317 484/439/317 486/540/317
f 481/537/318 480/536/318 486/540/318 487/541/318
f 482/538/319 481/537/319 487/541/319 488/542/319
f 483/539/320 482/538/320 488/542/320 489/543/320
f 479/342/321 483/539/321 489/543/321 485/340/321
f 486/540/322 484/439/322 490/441/322 492/544/322
f 487/541/323 486/540/323 492/544/323 493/545/323
f 488/542/324 487/541/324 493/545/324 494/546/324
f 489/543/325 488/542/325 494/546/325 495/547/325
f 485/340/326 489/543/326 495/547/326 491/338/326
f 492/544/327 490/441/327 496/443/327 498/548/327
f 493/545/328 492/544/328 498/548/328 499/549/328
f 494/546/329 493/545/329 499/549/329 500/550/329
f 495/547/330 494/546/330 500/550/330 501/551/330
f 491/338/331 495/547/331 501/551/331 497/336/331
f 498/548/332 496/443/332 503/445/332 507/552/332
f 499/549/333 498/548/333 507/552/333 506/553/333
f 500/550/334 499/549/334 506/553/334 505/554/334
f 501/551/335 500/550/335 505/554/335 504/555/335
f 497/336/336 501/551/336 504/555/336 502/335/336
f 545/392/337 546/395/337 366/396/337 372/391/337
f 343/446/338 364/444/338 539/330/338 508/332/338
f 364/444/339 363/442/339 538/296/339 539/330/339
f 363/442/340 362/440/340 537/294/340 538/296/340
f 362/440/341 361/438/341 536/292/341 537/294/341
f 361/438/342 360/436/342 535/290/342 536/292/342
f 360/436/343 359/434/343 534/288/343 535/290/343
f 359/434/344 358/432/344 533/286/344 534/288/344
f 358/432/345 357/430/345 532/284/345 533/286/345
f 357/430/346 356/428/346 531/282/346 532/284/346
f 356/428/347 355/426/347 530/280/347 531/282/347
f 355/426/348 354/424/348 529/278/348 530/280/348
f 354/424/349 353/422/349 528/276/349 529/278/349
f 353/422/350 352/420/350 527/274/350 528/276/350
f 352/420/351 351/418/351 526/272/351 527/274/351
f 351/418/352 350/416/352 525/270/352 526/272/352
f 350/416/353 349/414/353 524/268/353 525/270/353
f 349/414/354 348/412/354 523/266/354 524/268/354
f 348/412/355 347/408/355 522/264/355 523/266/355
f 347/408/356 583/409/356 594/556/356 521/262/356 522/264/356
f 521/262/357 594/556/357 595/558/357 596/557/357 520/260/357
f 596/557/358 597/559/358 519/258/358 520/260/358
f 597/559/359 598/560/359 518/256/359 519/258/359
f 598/560/360 599/561/360 517/254/360 518/256/360
f 600/562/361 601/563/361 516/252/361 517/254/361 599/561/361
f 601/563/362 602/564/362 515/250/362 516/252/362
f 602/564/363 603/565/363 514/248/363 515/250/363
f 603/565/364 604/566/364 513/246/364 514/248/364
f 513/246/365 604/566/365 605/568/365 606/567/365 512/244/365
f 512/244/366 606/567/366 577/401/366 346/400/366 511/242/366
f 346/400/367 345/394/367 510/240/367 511/242/367
f 345/394/368 344/388/368 509/236/368 510/240/368
f 344/388/369 343/389/369 508/239/369 509/236/369
f 294/569/126 288/572/126 301/571/126 312/570/126
f 572/573/128 576/576/128 301/571/128 288/572/128 568/575/128 566/574/128
f 284/577/129 569/579/129 567/578/129 294/569/129
f 599/580/130 598/587/130 597/586/130 596/585/130 595/584/130 286/583/130 295/582/130 600/581/130
f 604/588/130 603/593/130 602/592/130 601/591/130 600/581/130 295/582/130 290/590/130 605/589/130
f 294/569/129 567/578/129 568/594/129 288/572/129
f 284/577/126 294/569/126 312/570/126 306/595/126
f 573/596/127 571/599/127 570/598/127 569/597/127 284/577/127 306/595/127
f 595/600/127 594/604/127 583/603/127 582/602/127 307/601/127 286/583/127
f 309/605/126 304/606/126 290/590/126 295/582/126
f 307/601/126 309/605/126 295/582/126 286/583/126
f 577/607/128 606/610/128 605/609/128 290/590/128 304/606/128 578/608/128
f 301/571/126 304/606/126 309/605/126 312/570/126
f 582/602/127 580/618/127 581/617/127 590/616/127 591/615/127 592/614/127 593/613/127 589/612/127 574/611/127 573/596/127 306/595/127 307/601/127
f 323/619/130 309/605/130 307/601/130 330/601/130
f 576/576/128 575/626/128 588/625/128 587/624/128 586/623/128 585/622/128 584/621/128 579/620/128 578/608/128 304/606/128 301/571/128
f 335/627/129 319/627/129 317/628/129 333/628/129
f 328/595/129 306/595/129 312/570/129 326/570/129
f 330/601/127 307/601/127 306/595/127 328/595/127
f 326/570/128 312/570/128 309/605/128 323/619/128
f 323/619/126 315/629/126 317/628/126 326/570/126
f 328/595/126 319/627/126 322/630/126 330/601/126
f 330/601/126 322/630/126 315/629/126 323/619/126
f 326/570/126 317/628/126 319/627/126 328/595/126
f 333/628/126 331/629/126 337/630/126 335/627/126
f 337/630/127 322/630/127 319/627/127 335/627/127
f 331/629/130 315/629/130 322/630/130 337/630/130
f 333/628/128 317/628/128 315/629/128 331/629/128
